HIERARCHY
ROOT Hips
{
  OFFSET 232.974 93.818 952.219
  CHANNELS 6 Xposition Yposition Zposition Zrotation Xrotation Yrotation
  JOINT Spine
  {
    OFFSET 0 8 0
    CHANNELS 6 Xposition Yposition Zposition Zrotation Xrotation Yrotation
    JOINT Spine1
    {
      OFFSET 0 8 0
      CHANNELS 6 Xposition Yposition Zposition Zrotation Xrotation Yrotation
      JOINT Spine2
      {
        OFFSET 0 8 0
        CHANNELS 6 Xposition Yposition Zposition Zrotation Xrotation Yrotation
        JOINT Spine3
        {
          OFFSET 0 8 0
          CHANNELS 6 Xposition Yposition Zposition Zrotation Xrotation Yrotation
          JOINT Neck
          {
            OFFSET 0 17 0
            CHANNELS 6 Xposition Yposition Zposition Zrotation Xrotation Yrotation
            JOINT Head
            {
              OFFSET 0 10.8 0
              CHANNELS 6 Xposition Yposition Zposition Zrotation Xrotation Yrotation
              End Site
              {
                OFFSET 0 20.25 0
              }
            }
          }
          JOINT LeftShoulder
          {
            OFFSET 5 17 0
            CHANNELS 6 Xposition Yposition Zposition Zrotation Xrotation Yrotation
            JOINT LeftShoulder2
            {
              OFFSET 6.45 0 0
              CHANNELS 6 Xposition Yposition Zposition Zrotation Xrotation Yrotation
              JOINT LeftArm
              {
                OFFSET 6.45 0 0
                CHANNELS 6 Xposition Yposition Zposition Zrotation Xrotation Yrotation
                JOINT LeftForeArm
                {
                  OFFSET 0 -32.4 -2
                  CHANNELS 6 Xposition Yposition Zposition Zrotation Xrotation Yrotation
                  JOINT LeftHand
                  {
                    OFFSET 0 -25.65 2
                    CHANNELS 6 Xposition Yposition Zposition Zrotation Xrotation Yrotation
                    JOINT LeftHandThumb1
                    {
                      OFFSET -0.5 -1.5 2.65
                      CHANNELS 6 Xposition Yposition Zposition Zrotation Xrotation Yrotation
                      JOINT LeftHandThumb2
                      {
                        OFFSET 0 -3.8 3.7
                        CHANNELS 6 Xposition Yposition Zposition Zrotation Xrotation Yrotation
                        JOINT LeftHandThumb3
                        {
                          OFFSET 0 -3 2.7
                          CHANNELS 6 Xposition Yposition Zposition Zrotation Xrotation Yrotation
                          End Site
                          {
                            OFFSET 0 -2.3 1.8
                          }
                        }
                      }
                    }
                    JOINT LeftHandIndex
                    {
                      OFFSET 0 -1.9 1.6
                      CHANNELS 6 Xposition Yposition Zposition Zrotation Xrotation Yrotation
                      JOINT LeftHandIndex1
                      {
                        OFFSET 0 -8.3 1.9
                        CHANNELS 6 Xposition Yposition Zposition Zrotation Xrotation Yrotation
                        JOINT LeftHandIndex2
                        {
                          OFFSET 0 -4.5 0
                          CHANNELS 6 Xposition Yposition Zposition Zrotation Xrotation Yrotation
                          JOINT LeftHandIndex3
                          {
                            OFFSET 0 -3.4 0
                            CHANNELS 6 Xposition Yposition Zposition Zrotation Xrotation Yrotation
                            End Site
                            {
                              OFFSET 0 -2.6 0
                            }
                          }
                        }
                      }
                    }
                    JOINT LeftHandMiddle
                    {
                      OFFSET -0.25 -2.2 0.4
                      CHANNELS 6 Xposition Yposition Zposition Zrotation Xrotation Yrotation
                      JOINT LeftHandMiddle1
                      {
                        OFFSET 0 -8.3 1
                        CHANNELS 6 Xposition Yposition Zposition Zrotation Xrotation Yrotation
                        JOINT LeftHandMiddle2
                        {
                          OFFSET 0 -4.65 0
                          CHANNELS 6 Xposition Yposition Zposition Zrotation Xrotation Yrotation
                          JOINT LeftHandMiddle3
                          {
                            OFFSET 0 -3.3 0
                            CHANNELS 6 Xposition Yposition Zposition Zrotation Xrotation Yrotation
                            End Site
                            {
                              OFFSET 0 -2.7 0
                            }
                          }
                        }
                      }
                    }
                    JOINT LeftHandRing
                    {
                      OFFSET -0.5 -2.15 -0.8
                      CHANNELS 6 Xposition Yposition Zposition Zrotation Xrotation Yrotation
                      JOINT LeftHandRing1
                      {
                        OFFSET 0 -7.75 -0.2
                        CHANNELS 6 Xposition Yposition Zposition Zrotation Xrotation Yrotation
                        JOINT LeftHandRing2
                        {
                          OFFSET 0 -3.8 0
                          CHANNELS 6 Xposition Yposition Zposition Zrotation Xrotation Yrotation
                          JOINT LeftHandRing3
                          {
                            OFFSET 0 -3.4 0
                            CHANNELS 6 Xposition Yposition Zposition Zrotation Xrotation Yrotation
                            End Site
                            {
                              OFFSET 0 -2.6 0
                            }
                          }
                        }
                      }
                    }
                    JOINT LeftHandPinky
                    {
                      OFFSET -0.75 -1.75 -1.85
                      CHANNELS 6 Xposition Yposition Zposition Zrotation Xrotation Yrotation
                      JOINT LeftHandPinky1
                      {
                        OFFSET 0 -7.15 -1
                        CHANNELS 6 Xposition Yposition Zposition Zrotation Xrotation Yrotation
                        JOINT LeftHandPinky2
                        {
                          OFFSET 0 -3 0
                          CHANNELS 6 Xposition Yposition Zposition Zrotation Xrotation Yrotation
                          JOINT LeftHandPinky3
                          {
                            OFFSET 0 -2.35 0
                            CHANNELS 6 Xposition Yposition Zposition Zrotation Xrotation Yrotation
                            End Site
                            {
                              OFFSET 0 -2.1 0
                            }
                          }
                        }
                      }
                    }
                  }
                }
              }
            }
          }
          JOINT RightShoulder
          {
            OFFSET -5 17 0
            CHANNELS 6 Xposition Yposition Zposition Zrotation Xrotation Yrotation
            JOINT RightShoulder2
            {
              OFFSET -6.45 0 0
              CHANNELS 6 Xposition Yposition Zposition Zrotation Xrotation Yrotation
              JOINT RightArm
              {
                OFFSET -6.45 0 0
                CHANNELS 6 Xposition Yposition Zposition Zrotation Xrotation Yrotation
                JOINT RightForeArm
                {
                  OFFSET 0 -32.4 -2
                  CHANNELS 6 Xposition Yposition Zposition Zrotation Xrotation Yrotation
                  JOINT RightHand
                  {
                    OFFSET 0 -25.65 2
                    CHANNELS 6 Xposition Yposition Zposition Zrotation Xrotation Yrotation
                    JOINT RightHandThumb1
                    {
                      OFFSET 0.5 -1.5 2.65
                      CHANNELS 6 Xposition Yposition Zposition Zrotation Xrotation Yrotation
                      JOINT RightHandThumb2
                      {
                        OFFSET 0 -3.8 3.7
                        CHANNELS 6 Xposition Yposition Zposition Zrotation Xrotation Yrotation
                        JOINT RightHandThumb3
                        {
                          OFFSET 0 -3 2.7
                          CHANNELS 6 Xposition Yposition Zposition Zrotation Xrotation Yrotation
                          End Site
                          {
                            OFFSET 0 -2.3 1.8
                          }
                        }
                      }
                    }
                    JOINT RightHandIndex
                    {
                      OFFSET 0 -1.9 1.6
                      CHANNELS 6 Xposition Yposition Zposition Zrotation Xrotation Yrotation
                      JOINT RightHandIndex1
                      {
                        OFFSET 0 -8.3 1.9
                        CHANNELS 6 Xposition Yposition Zposition Zrotation Xrotation Yrotation
                        JOINT RightHandIndex2
                        {
                          OFFSET 0 -4.5 0
                          CHANNELS 6 Xposition Yposition Zposition Zrotation Xrotation Yrotation
                          JOINT RightHandIndex3
                          {
                            OFFSET 0 -3.4 0
                            CHANNELS 6 Xposition Yposition Zposition Zrotation Xrotation Yrotation
                            End Site
                            {
                              OFFSET 0 -2.6 0
                            }
                          }
                        }
                      }
                    }
                    JOINT RightHandMiddle
                    {
                      OFFSET 0.25 -2.2 0.4
                      CHANNELS 6 Xposition Yposition Zposition Zrotation Xrotation Yrotation
                      JOINT RightHandMiddle1
                      {
                        OFFSET 0 -8.3 1
                        CHANNELS 6 Xposition Yposition Zposition Zrotation Xrotation Yrotation
                        JOINT RightHandMiddle2
                        {
                          OFFSET 0 -4.65 0
                          CHANNELS 6 Xposition Yposition Zposition Zrotation Xrotation Yrotation
                          JOINT RightHandMiddle3
                          {
                            OFFSET 0 -3.3 0
                            CHANNELS 6 Xposition Yposition Zposition Zrotation Xrotation Yrotation
                            End Site
                            {
                              OFFSET 0 -2.7 0
                            }
                          }
                        }
                      }
                    }
                    JOINT RightHandRing
                    {
                      OFFSET 0.5 -2.15 -0.8
                      CHANNELS 6 Xposition Yposition Zposition Zrotation Xrotation Yrotation
                      JOINT RightHandRing1
                      {
                        OFFSET 0 -7.75 -0.2
                        CHANNELS 6 Xposition Yposition Zposition Zrotation Xrotation Yrotation
                        JOINT RightHandRing2
                        {
                          OFFSET 0 -3.8 0
                          CHANNELS 6 Xposition Yposition Zposition Zrotation Xrotation Yrotation
                          JOINT RightHandRing3
                          {
                            OFFSET 0 -3.4 0
                            CHANNELS 6 Xposition Yposition Zposition Zrotation Xrotation Yrotation
                            End Site
                            {
                              OFFSET 0 -2.6 0
                            }
                          }
                        }
                      }
                    }
                    JOINT RightHandPinky
                    {
                      OFFSET 0.75 -1.75 -1.85
                      CHANNELS 6 Xposition Yposition Zposition Zrotation Xrotation Yrotation
                      JOINT RightHandPinky1
                      {
                        OFFSET 0 -7.15 -1
                        CHANNELS 6 Xposition Yposition Zposition Zrotation Xrotation Yrotation
                        JOINT RightHandPinky2
                        {
                          OFFSET 0 -3 0
                          CHANNELS 6 Xposition Yposition Zposition Zrotation Xrotation Yrotation
                          JOINT RightHandPinky3
                          {
                            OFFSET 0 -2.35 0
                            CHANNELS 6 Xposition Yposition Zposition Zrotation Xrotation Yrotation
                            End Site
                            {
                              OFFSET 0 -2.1 0
                            }
                          }
                        }
                      }
                    }
                  }
                }
              }
            }
          }
        }
      }
    }
  }
  JOINT LeftUpLeg
  {
    OFFSET 8 0 0
    CHANNELS 6 Xposition Yposition Zposition Zrotation Xrotation Yrotation
    JOINT LeftLeg
    {
      OFFSET 0 -45 -1
      CHANNELS 6 Xposition Yposition Zposition Zrotation Xrotation Yrotation
      JOINT LeftFoot
      {
        OFFSET 0 -41 -2
        CHANNELS 6 Xposition Yposition Zposition Zrotation Xrotation Yrotation
        JOINT LeftToeBase
        {
          OFFSET 0 -7.5 12.5
          CHANNELS 6 Xposition Yposition Zposition Zrotation Xrotation Yrotation
          JOINT LeftFootToe
          {
            OFFSET 0 0 4
            CHANNELS 6 Xposition Yposition Zposition Zrotation Xrotation Yrotation
            End Site
            {
              OFFSET 0 0 0
            }
          }
        }
      }
    }
  }
  JOINT RightUpLeg
  {
    OFFSET -8 0 0
    CHANNELS 6 Xposition Yposition Zposition Zrotation Xrotation Yrotation
    JOINT RightLeg
    {
      OFFSET 0 -45 -1
      CHANNELS 6 Xposition Yposition Zposition Zrotation Xrotation Yrotation
      JOINT RightFoot
      {
        OFFSET 0 -41 -2
        CHANNELS 6 Xposition Yposition Zposition Zrotation Xrotation Yrotation
        JOINT RightToeBase
        {
          OFFSET 0 -7.5 12.5
          CHANNELS 6 Xposition Yposition Zposition Zrotation Xrotation Yrotation
          JOINT RightFootToe
          {
            OFFSET 0 0 4
            CHANNELS 6 Xposition Yposition Zposition Zrotation Xrotation Yrotation
            End Site
            {
              OFFSET 0 0 0
            }
          }
        }
      }
    }
  }
}
MOTION
Frames:	3
Frame Time:	0.0111111
232.926 92.2854 990.05 -6.97409 -1.69113 48.9415 0 8 1.13687e-13 10.3342 25.1187 -6.54287 0 8 0 1.78674 8.65565 -2.29012 0 8 -1.13687e-13 0.848966 4.34754 -1.10994 0 8 0 0.846109 4.33359 -1.10633 0 17 1.13687e-13 -2.1154 -6.57648 8.15688 -1.13687e-13 10.8 1.13687e-13 -3.47998 -15.7921 19.0693 5 17 1.13687e-13 -0.0307019 -3.58091 14.8111 6.45 0 5.68434e-14 0.94085 -0.837273 0.797106 6.45 0 -5.68434e-14 -9.2571 -58.1927 -29.5987 0 -32.4 -2 -6.68881 -16.768 28.4879 0 -25.65 2 40.4548 -13.461 10.3901 -0.5 -1.5 2.65 -11.741 -27.0207 -21.852 -1.13687e-13 -3.8 3.7 0.0931808 25.9504 0.086465 0 -3 2.7 -0.174243 18.425 -0.406866 0 -1.9 1.6 -1.59028e-15 2.78299e-15 3.18055e-15 -1.13687e-13 -8.3 1.9 -6.76492 7.457 0.561819 0 -4.5 1.13687e-13 -26.5657 0.00577275 0.0105062 0 -3.4 0 -20.017 -0.00178059 0.00260831 -0.25 -2.2 0.4 -1.59028e-15 2.38542e-15 3.18055e-15 -1.13687e-13 -8.3 1 -21.8234 8.58418 2.61158 1.13687e-13 -4.65 -1.13687e-13 -2.59958 0.0122954 -0.0620157 0 -3.3 0 -2.46002 -0.0023413 -0.0582907 -0.5 -2.15 -0.8 -1.59028e-15 2.78299e-15 3.18055e-15 -1.13687e-13 -7.75 -0.2 -38.2456 0.0166698 1.63517 1.13687e-13 -3.8 0 0.0712943 -0.085362 0.00157745 0 -3.4 0 0.0714681 -0.0833816 0.00571616 -0.75 -1.75 -1.85 -1.59028e-15 2.78299e-15 3.18055e-15 -1.13687e-13 -7.15 -1 -40.5263 -1.24235 1.52802 1.13687e-13 -3 0 -0.0964969 -0.201927 0.230228 -1.13687e-13 -2.35 0 -0.0672239 -0.199144 0.226471 -5 17 0 -3.95208 -4.98524 1.20047 -6.45 0 -1.13687e-13 -2.28365 0.898142 -1.56698 -6.45 0 0 10.5504 -35.2771 50.8056 0 -32.4 -2 2.482 -48.9552 -1.40399 0 -25.65 2 -46.73 -7.68194 25.6228 0.5 -1.5 2.65 16.7926 -20.7793 9.13886 -1.13687e-13 -3.8 3.7 0.340462 28.0125 -0.131938 0 -3 2.7 0.016243 9.9803 0.00164677 1.13687e-13 -1.9 1.6 -6.36111e-15 -4.77083e-15 1.59028e-15 0 -8.3 1.9 28.3218 23.7175 -6.57764 0 -4.5 -5.68434e-14 0.00415821 0.014193 -0.00510224 1.13687e-13 -3.4 0 1.80326e-06 -0.0123756 -0.00565037 0.25 -2.2 0.4 -6.36111e-15 -4.77083e-15 1.59028e-15 0 -8.3 1 35.1604 23.1583 -9.14907 0 -4.65 -5.68434e-14 38.9049 0.00583277 0.0017104 -1.13687e-13 -3.3 0 27.4259 -0.00197021 0.0490911 0.5 -2.15 -0.8 -6.36111e-15 -4.77083e-15 1.59028e-15 0 -7.75 -0.2 41.4553 20.3862 -10.9361 0 -3.8 0 55.1596 0.0121564 0.0186161 0 -3.4 -5.68434e-14 38.2068 0.0244807 -0.00118003 0.75 -1.75 -1.85 -6.36111e-15 -4.77083e-15 1.59028e-15 0 -7.15 -1 75.0079 11.3188 -16.6554 -1.13687e-13 -3 5.68434e-14 52.3649 0.0165733 0.000624873 0 -2.35 -5.68434e-14 36.1549 0.00788887 -0.00108407 8 0 1.13687e-13 14.74 -21.4244 36.5753 0 -45 -1 -0.377544 14.0467 -5.87256 0 -41 -2 1.7396 0.916604 -19.2028 -1.13687e-13 -7.5 12.5 5.96354e-16 -2.69371e-07 -0 0 -7.10543e-15 4 -0.571188 -7.46664 12.2923 -8 0 1.13687e-13 1.4481 -5.06989 -23.6431 2.84217e-14 -45 -1 -0.00152685 6.4566 -0.968666 -2.84217e-14 -41 -2 3.74028 -3.78488 21.7633 1.13687e-13 -7.5 12.5 2.11755e-17 0.381216 3.18063e-15 0 -8.88178e-16 4 0.861747 1.43451 19.7705 
232.908 92.2866 990.045 -7.01136 -1.65436 48.8701 0 8 -1.13687e-13 10.2889 25.1605 -6.54436 0 8 0 1.75785 8.66366 -2.29316 5.68434e-14 8 0 0.834355 4.34743 -1.11224 0 8 -1.13687e-13 0.831593 4.33376 -1.10863 0 17 -1.13687e-13 -2.10267 -6.60578 8.1687 0 10.8 0 -3.44121 -15.8581 19.1015 5 17 -1.13687e-13 -0.0290659 -3.57393 14.7922 6.45 0 0 0.946156 -0.832095 0.790271 6.45 -2.27374e-13 0 -8.39167 -57.897 -28.2356 0 -32.4 -2 -6.51346 -17.2673 28.6559 0 -25.65 2 36.6699 -14.4162 9.6795 -0.5 -1.5 2.65 -10.667 -26.4376 -20.8842 0 -3.8 3.7 0.0789428 24.6686 0.0894334 0 -3 2.7 -0.142729 21.2997 -0.426805 0 -1.9 1.6 -7.45443e-17 1.27346e-14 -3.18055e-15 0 -8.3 1.9 -5.35821 7.09188 0.42652 -1.13687e-13 -4.5 0 -26.0796 0.0068447 0.0105342 0 -3.4 0 -19.7174 0.000289811 0.00267314 -0.25 -2.2 0.4 -7.45443e-17 1.2511e-14 -3.18055e-15 0 -8.3 1 -19.1972 7.47187 2.03387 0 -4.65 0 -2.88263 0.012381 -0.0323595 -1.13687e-13 -3.3 1.13687e-13 -2.7345 -0.00227066 -0.0303666 -0.5 -2.15 -0.8 -7.45443e-17 1.27968e-14 -3.18055e-15 0 -7.75 -0.2 -35.6466 0.449657 1.57807 0 -3.8 1.13687e-13 0.0706792 -0.0839144 0.00158837 0 -3.4 0 0.0708212 -0.0819636 0.00576711 -0.75 -1.75 -1.85 -7.45443e-17 1.27346e-14 -3.18055e-15 0 -7.15 -1 -39.2511 -0.49686 1.65013 0 -3 0 -0.0971126 -0.202043 0.23102 0 -2.35 0 -0.0678502 -0.19923 0.226828 -5 17 0 -3.94993 -4.84304 1.21634 -6.45 1.13687e-13 0 -2.28977 0.873069 -1.57758 -6.45 0 -1.13687e-13 10.6492 -35.4963 50.9034 0 -32.4 -2 2.59546 -48.9326 -1.54961 0 -25.65 2 -46.0311 -7.29695 25.2659 0.5 -1.5 2.65 16.4429 -20.6713 9.02817 0 -3.8 3.7 0.347388 27.864 -0.134317 0 -3 2.7 0.0166209 10.2983 0.000860399 0 -1.9 1.6 -2.64834e-31 -3.18055e-15 -4.77083e-15 0 -8.3 1.9 28.5394 23.7747 -6.64562 0 -4.5 0 0.00450589 0.0144258 -0.00634755 0 -3.4 5.68434e-14 1.45229e-06 -0.0126205 -0.0069187 0.25 -2.2 0.4 -2.64834e-31 -3.18055e-15 -4.77083e-15 0 -8.3 1 35.4487 23.2647 -9.26055 0 -4.65 5.68434e-14 38.3004 0.00602377 0.00151381 1.13687e-13 -3.3 -5.68434e-14 27.0593 -0.00206573 0.049242 0.5 -2.15 -0.8 -2.64834e-31 -3.18055e-15 -4.77083e-15 -1.13687e-13 -7.75 -0.2 41.5811 20.4182 -10.9709 0 -3.8 0 54.7656 0.0123876 0.0188232 1.13687e-13 -3.4 -5.68434e-14 37.9146 0.0245645 -0.00100704 0.75 -1.75 -1.85 -2.64834e-31 -3.18055e-15 -4.77083e-15 -1.13687e-13 -7.15 -1 75.0379 11.2794 -16.6358 0 -3 2.84217e-14 52.5117 0.0163029 0.000694783 0 -2.35 5.68434e-14 36.2586 0.00811191 -0.000992569 8 1.42109e-14 1.13687e-13 14.7682 -21.4718 36.5892 0 -45 -1 -0.376908 14.055 -5.87601 0 -41 -2 1.72849 0.913636 -19.1488 0 -7.5 12.5 1.19271e-15 -2.68556e-07 3.18055e-15 0 0 4 -0.554401 -7.4523 12.2935 -8 -1.42109e-14 0 1.44926 -5.13436 -23.6636 0 -45 -1 0.000497436 6.45652 -0.973519 -2.84217e-14 -41 -2 3.73044 -3.76565 21.8546 0 -7.5 12.5 6.34726e-17 0.381771 -6.36125e-15 1.13687e-13 -8.88178e-16 4 0.888434 1.41809 19.7704 
232.887 92.2879 990.041 -7.05007 -1.61833 48.8053 -1.13687e-13 8 0 10.2396 25.2046 -6.54531 0 8 1.13687e-13 1.7295 8.6725 -2.29626 -5.68434e-14 8 0 0.820103 4.35174 -1.11464 5.68434e-14 8 0 0.81738 4.33803 -1.11101 -5.68434e-14 17 0 -2.08386 -6.6336 8.17749 1.13687e-13 10.8 1.13687e-13 -3.38865 -15.9196 19.1275 5 17 0 -0.0249149 -3.56166 14.7685 6.45 -1.13687e-13 0 0.952853 -0.82853 0.786349 6.45 0 -5.68434e-14 -7.55895 -57.6182 -26.8627 -5.68434e-14 -32.4 -2 -6.36234 -17.685 28.7841 0 -25.65 2 32.7934 -15.1234 8.81357 -0.5 -1.5 2.65 -9.70381 -25.887 -19.8753 1.13687e-13 -3.8 3.7 0.0660635 23.4838 0.0954214 0 -3 2.7 -0.0913013 24.2275 -0.406931 0 -1.9 1.6 5.96354e-15 6.36111e-15 3.18055e-15 1.13687e-13 -8.3 1.9 -4.6799 6.76936 0.370092 0 -4.5 0 -24.8433 0.00801122 0.010731 0 -3.4 0 -18.9316 0.00253177 0.00274008 -0.25 -2.2 0.4 5.96354e-15 6.16232e-15 3.18055e-15 0 -8.3 1 -17.3329 6.56804 1.62495 0 -4.65 -1.13687e-13 -3.08373 0.012467 -0.00880418 1.13687e-13 -3.3 0 -2.9302 -0.00219748 -0.00804322 -0.5 -2.15 -0.8 5.96354e-15 6.36111e-15 3.18055e-15 1.13687e-13 -7.75 -0.2 -33.5623 0.876137 1.55072 0 -3.8 0 0.0700617 -0.0824611 0.00159929 0 -3.4 0 0.0701733 -0.080543 0.00581836 -0.75 -1.75 -1.85 5.96354e-15 6.36111e-15 3.18055e-15 0 -7.15 -1 -38.0119 0.212789 1.76678 -1.13687e-13 -3 0 -0.097728 -0.20216 0.231806 0 -2.35 0 -0.0684774 -0.199316 0.227021 -5 17 0 -3.94915 -4.70947 1.2142 -6.45 0 1.13687e-13 -2.2973 0.862903 -1.59006 -6.45 1.13687e-13 1.13687e-13 10.7466 -35.7351 51.028 1.13687e-13 -32.4 -2 2.72384 -48.9209 -1.65236 0 -25.65 2 -45.3653 -6.86522 24.8525 0.5 -1.5 2.65 16.1069 -20.581 8.93828 -1.13687e-13 -3.8 3.7 0.353776 27.748 -0.135853 0 -3 2.7 0.017005 10.5949 7.731e-05 0 -1.9 1.6 3.18055e-15 7.95139e-16 3.18055e-15 0 -8.3 1.9 28.7272 23.828 -6.70641 0 -4.5 -5.68434e-14 0.00481188 0.0146396 -0.00759371 0 -3.4 0 1.08158e-06 -0.0128577 -0.00818875 0.25 -2.2 0.4 3.18055e-15 7.95139e-16 3.18055e-15 0 -8.3 1 35.7234 23.3593 -9.36557 -1.13687e-13 -4.65 0 37.6799 0.00619586 0.00132091 1.13687e-13 -3.3 -5.68434e-14 26.6841 -0.00215753 0.049373 0.5 -2.15 -0.8 3.18055e-15 7.95139e-16 3.18055e-15 0 -7.75 -0.2 41.6952 20.431 -10.994 0 -3.8 0 54.3224 0.0126143 0.0190233 1.13687e-13 -3.4 -5.68434e-14 37.5884 0.0246321 -0.000835022 0.75 -1.75 -1.85 3.18055e-15 7.95139e-16 3.18055e-15 0 -7.15 -1 75.0455 11.2391 -16.6056 -1.13687e-13 -3 5.68434e-14 52.656 0.0160493 0.000761823 0 -2.35 2.84217e-14 36.361 0.00832975 -0.000901024 8 -1.42109e-14 1.13687e-13 14.802 -21.5247 36.6138 1.13687e-13 -45 -1 -0.375743 14.0707 -5.87846 0 -41 -2 1.71897 0.908305 -19.104 0 -7.5 12.5 -5.96354e-16 -2.67741e-07 3.18055e-15 0 -7.10543e-15 4 -0.5365 -7.43782 12.294 -8 0 1.13687e-13 1.45371 -5.19913 -23.6866 2.84217e-14 -45 -1 0.00254757 6.45496 -0.978975 -2.84217e-14 -41 -2 3.71897 -3.74576 21.9426 1.13687e-13 -7.5 12.5 -6.36489e-17 0.382326 -0 0 0 4 0.91697 1.39947 19.7702 
